{
  "accessors": [
    {
      "bufferView": 2,
      "componentType": 5126,
      "count": 3438,
      "max": [
        1.7505275011062622,
        1.17550790309906,
        4.024295806884766
      ],
      "min": [
        -1.7126270532608032,
        -1.0861228704452515,
        1.1917779445648193
      ],
      "type": "VEC3"
    },
    {
      "bufferView": 2,
      "byteOffset": 41256,
      "componentType": 5126,
      "count": 3438,
      "max": [
        0.9999843239784241,
        0.9986555576324463,
        0.9998589158058167
      ],
      "min": [
        -0.9999842643737793,
        -0.9999879598617554,
        -0.9997705817222595
      ],
      "type": "VEC3"
    },
    {
      "bufferView": 3,
      "componentType": 5126,
      "count": 3438,
      "max": [
        0.9998888373374939,
        0.9999464154243469,
        0.8093968033790588,
        1.0
      ],
      "min": [
        -0.9995822310447693,
        -0.9999932050704956,
        -0.9997145533561707,
        1.0
      ],
      "type": "VEC4"
    },
    {
      "bufferView": 1,
      "componentType": 5126,
      "count": 3438,
      "max": [
        1.0,
        0.9844150543212891
      ],
      "min": [
        9.066094541765324e-09,
        -2.3239378421635593e-08
      ],
      "type": "VEC2"
    },
    {
      "bufferView": 1,
      "byteOffset": 27504,
      "componentType": 5126,
      "count": 3438,
      "max": [
        1.0,
        0.9844150543212891
      ],
      "min": [
        9.066094541765324e-09,
        -2.3239378421635593e-08
      ],
      "type": "VEC2"
    },
    {
      "bufferView": 0,
      "componentType": 5125,
      "count": 18240,
      "type": "SCALAR"
    },
    {
      "bufferView": 2,
      "byteOffset": 82512,
      "componentType": 5126,
      "count": 558,
      "max": [
        1.0568865537643433,
        0.9037145972251892,
        2.0364902019500732
      ],
      "min": [
        -1.0568865537643433,
        -1.0738022327423096,
        0.5331006050109863
      ],
      "type": "VEC3"
    },
    {
      "bufferView": 2,
      "byteOffset": 89208,
      "componentType": 5126,
      "count": 558,
      "max": [
        0.9986080527305603,
        0.9994189143180847,
        0.15203377604484558
      ],
      "min": [
        -0.9986081719398499,
        -0.9854960441589355,
        -0.9995028376579285
      ],
      "type": "VEC3"
    },
    {
      "bufferView": 3,
      "byteOffset": 55008,
      "componentType": 5126,
      "count": 558,
      "max": [
        0.5727682113647461,
        0.9997293949127197,
        0.9994520545005798,
        1.0
      ],
      "min": [
        -0.5727691650390625,
        -0.12771394848823547,
        -0.9997867941856384,
        1.0
      ],
      "type": "VEC4"
    },
    {
      "bufferView": 1,
      "byteOffset": 55008,
      "componentType": 5126,
      "count": 558,
      "max": [
        0.9999999403953552,
        0.9841979146003723
      ],
      "min": [
        1.0781144865745773e-08,
        0.0
      ],
      "type": "VEC2"
    },
    {
      "bufferView": 1,
      "byteOffset": 59472,
      "componentType": 5126,
      "count": 558,
      "max": [
        0.9999999403953552,
        0.9841979146003723
      ],
      "min": [
        1.0781144865745773e-08,
        0.0
      ],
      "type": "VEC2"
    },
    {
      "bufferView": 1,
      "byteOffset": 63936,
      "componentType": 5126,
      "count": 558,
      "max": [
        0.9999999403953552,
        0.9841979146003723
      ],
      "min": [
        1.0781144865745773e-08,
        0.0
      ],
      "type": "VEC2"
    },
    {
      "bufferView": 0,
      "byteOffset": 72960,
      "componentType": 5125,
      "count": 2880,
      "type": "SCALAR"
    },
    {
      "bufferView": 2,
      "byteOffset": 95904,
      "componentType": 5126,
      "count": 21261,
      "max": [
        1.6819474697113037,
        -0.018351927399635315,
        4.142481803894043
      ],
      "min": [
        -1.681947946548462,
        -0.9231616258621216,
        -0.021264351904392242
      ],
      "type": "VEC3"
    },
    {
      "bufferView": 2,
      "byteOffset": 351036,
      "componentType": 5126,
      "count": 21261,
      "max": [
        0.9994195699691772,
        1.0,
        0.9999784827232361
      ],
      "min": [
        -0.9994195699691772,
        -0.9997963309288025,
        -0.9993877410888672
      ],
      "type": "VEC3"
    },
    {
      "bufferView": 3,
      "byteOffset": 63936,
      "componentType": 5126,
      "count": 21261,
      "max": [
        1.0,
        0.9525563716888428,
        0.9994195103645325,
        1.0
      ],
      "min": [
        -0.9999927282333374,
        -0.9994493126869202,
        -0.9994943737983704,
        -1.0
      ],
      "type": "VEC4"
    },
    {
      "bufferView": 1,
      "byteOffset": 68400,
      "componentType": 5126,
      "count": 21261,
      "max": [
        1.0,
        0.9978005886077881
      ],
      "min": [
        -3.9715292388109447e-08,
        -6.182591505421442e-08
      ],
      "type": "VEC2"
    },
    {
      "bufferView": 1,
      "byteOffset": 238488,
      "componentType": 5126,
      "count": 21261,
      "max": [
        1.0,
        0.9978005886077881
      ],
      "min": [
        -3.9715292388109447e-08,
        -6.182591505421442e-08
      ],
      "type": "VEC2"
    },
    {
      "bufferView": 0,
      "byteOffset": 84480,
      "componentType": 5125,
      "count": 80784,
      "type": "SCALAR"
    },
    {
      "bufferView": 2,
      "byteOffset": 606168,
      "componentType": 5126,
      "count": 30218,
      "max": [
        1.6995493173599243,
        -0.11398066580295563,
        2.2115490436553955
      ],
      "min": [
        -1.6864498853683472,
        -0.4505923390388489,
        1.7454195022583008
      ],
      "type": "VEC3"
    },
    {
      "bufferView": 2,
      "byteOffset": 968784,
      "componentType": 5126,
      "count": 30218,
      "max": [
        0.9999611377716064,
        0.9997826814651489,
        0.9999424815177917
      ],
      "min": [
        -0.9999610781669617,
        -0.9998523592948914,
        -0.9999095797538757
      ],
      "type": "VEC3"
    },
    {
      "bufferView": 3,
      "byteOffset": 404112,
      "componentType": 5126,
      "count": 30218,
      "max": [
        0.9991968274116516,
        0.9985936284065247,
        0.9999339580535889,
        1.0
      ],
      "min": [
        -0.99988853931427,
        -0.9998993873596191,
        -0.9999703168869019,
        1.0
      ],
      "type": "VEC4"
    },
    {
      "bufferView": 1,
      "byteOffset": 408576,
      "componentType": 5126,
      "count": 30218,
      "max": [
        0.992368221282959,
        1.0000001192092896
      ],
      "min": [
        -1.7874504010251258e-07,
        -3.7694471188842726e-07
      ],
      "type": "VEC2"
    },
    {
      "bufferView": 1,
      "byteOffset": 650320,
      "componentType": 5126,
      "count": 30218,
      "max": [
        0.992368221282959,
        1.0000001192092896
      ],
      "min": [
        -1.7874504010251258e-07,
        -3.7694471188842726e-07
      ],
      "type": "VEC2"
    },
    {
      "bufferView": 1,
      "byteOffset": 892064,
      "componentType": 5126,
      "count": 30218,
      "max": [
        0.992368221282959,
        1.0000001192092896
      ],
      "min": [
        -1.7874504010251258e-07,
        -3.7694471188842726e-07
      ],
      "type": "VEC2"
    },
    {
      "bufferView": 0,
      "byteOffset": 407616,
      "componentType": 5125,
      "count": 132480,
      "type": "SCALAR"
    },
    {
      "bufferView": 2,
      "byteOffset": 1331400,
      "componentType": 5126,
      "count": 2214,
      "max": [
        1.7086150646209717,
        -0.09800314903259277,
        1.8475862741470337
      ],
      "min": [
        -1.7086153030395508,
        -0.4681863784790039,
        1.0398268699645996
      ],
      "type": "VEC3"
    },
    {
      "bufferView": 2,
      "byteOffset": 1357968,
      "componentType": 5126,
      "count": 2214,
      "max": [
        0.9976104497909546,
        0.99945068359375,
        0.9994668960571289
      ],
      "min": [
        -0.9976103901863098,
        -0.9997784495353699,
        -0.9864630699157715
      ],
      "type": "VEC3"
    },
    {
      "bufferView": 3,
      "byteOffset": 887600,
      "componentType": 5126,
      "count": 2214,
      "max": [
        0.9998506307601929,
        0.9991787672042847,
        0.9980289936065674,
        1.0
      ],
      "min": [
        -0.9998507499694824,
        -0.9997320771217346,
        -0.9755616784095764,
        -1.0
      ],
      "type": "VEC4"
    },
    {
      "bufferView": 1,
      "byteOffset": 1133808,
      "componentType": 5126,
      "count": 2214,
      "max": [
        0.9221282601356506,
        0.9999998807907104
      ],
      "min": [
        -8.193712375259565e-09,
        -2.342378735420425e-08
      ],
      "type": "VEC2"
    },
    {
      "bufferView": 1,
      "byteOffset": 1151520,
      "componentType": 5126,
      "count": 2214,
      "max": [
        0.9221282601356506,
        0.9999998807907104
      ],
      "min": [
        -8.193712375259565e-09,
        -2.342378735420425e-08
      ],
      "type": "VEC2"
    },
    {
      "bufferView": 1,
      "byteOffset": 1169232,
      "componentType": 5126,
      "count": 2214,
      "max": [
        0.9221282601356506,
        0.9999998807907104
      ],
      "min": [
        -8.193712375259565e-09,
        -2.342378735420425e-08
      ],
      "type": "VEC2"
    },
    {
      "bufferView": 0,
      "byteOffset": 937536,
      "componentType": 5125,
      "count": 10428,
      "type": "SCALAR"
    },
    {
      "bufferView": 2,
      "byteOffset": 1384536,
      "componentType": 5126,
      "count": 4934,
      "max": [
        1.6374127864837646,
        0.12703166902065277,
        3.443507432937622
      ],
      "min": [
        -1.5995123386383057,
        -0.6972827911376953,
        2.372321844100952
      ],
      "type": "VEC3"
    },
    {
      "bufferView": 2,
      "byteOffset": 1443744,
      "componentType": 5126,
      "count": 4934,
      "max": [
        0.9995254278182983,
        0.9999920129776001,
        0.9998295903205872
      ],
      "min": [
        -0.9995254278182983,
        -0.9993090033531189,
        -0.9988763928413391
      ],
      "type": "VEC3"
    },
    {
      "bufferView": 3,
      "byteOffset": 923024,
      "componentType": 5126,
      "count": 4934,
      "max": [
        0.9998095035552979,
        0.9960698485374451,
        0.999206006526947,
        1.0
      ],
      "min": [
        -0.9999072551727295,
        -0.9919654726982117,
        -0.9998739361763,
        1.0
      ],
      "type": "VEC4"
    },
    {
      "bufferView": 1,
      "byteOffset": 1186944,
      "componentType": 5126,
      "count": 4934,
      "max": [
        0.9999999403953552,
        0.9967796802520752
      ],
      "min": [
        -2.027713996710645e-08,
        -3.3250039166432543e-08
      ],
      "type": "VEC2"
    },
    {
      "bufferView": 1,
      "byteOffset": 1226416,
      "componentType": 5126,
      "count": 4934,
      "max": [
        0.9999999403953552,
        0.9967796802520752
      ],
      "min": [
        -2.027713996710645e-08,
        -3.3250039166432543e-08
      ],
      "type": "VEC2"
    },
    {
      "bufferView": 0,
      "byteOffset": 979248,
      "componentType": 5125,
      "count": 18432,
      "type": "SCALAR"
    },
    {
      "bufferView": 2,
      "byteOffset": 1502952,
      "componentType": 5126,
      "count": 112,
      "max": [
        0.16056086122989655,
        -0.8645914793014526,
        3.470396041870117
      ],
      "min": [
        -0.127480611205101,
        -1.339150309562683,
        1.0920886993408203
      ],
      "type": "VEC3"
    },
    {
      "bufferView": 2,
      "byteOffset": 1504296,
      "componentType": 5126,
      "count": 112,
      "max": [
        0.05125097557902336,
        -0.957622230052948,
        0.287570595741272
      ],
      "min": [
        -0.07249142229557037,
        -0.9999883770942688,
        -0.08280874788761139
      ],
      "type": "VEC3"
    },
    {
      "bufferView": 3,
      "byteOffset": 1001968,
      "componentType": 5126,
      "count": 112,
      "max": [
        -0.5041293501853943,
        0.08544778823852539,
        -0.5622358322143555,
        1.0
      ],
      "min": [
        -0.8255033493041992,
        -0.23131205141544342,
        -0.8477187156677246,
        1.0
      ],
      "type": "VEC4"
    },
    {
      "bufferView": 1,
      "byteOffset": 1265888,
      "componentType": 5126,
      "count": 112,
      "max": [
        0.6478331685066223,
        0.6852098107337952
      ],
      "min": [
        0.00030734535539522767,
        0.044559139758348465
      ],
      "type": "VEC2"
    },
    {
      "bufferView": 1,
      "byteOffset": 1266784,
      "componentType": 5126,
      "count": 112,
      "max": [
        0.6478331685066223,
        0.6852098107337952
      ],
      "min": [
        0.00030734535539522767,
        0.044559139758348465
      ],
      "type": "VEC2"
    },
    {
      "bufferView": 0,
      "byteOffset": 1052976,
      "componentType": 5125,
      "count": 486,
      "type": "SCALAR"
    },
    {
      "bufferView": 2,
      "byteOffset": 1505640,
      "componentType": 5126,
      "count": 81,
      "max": [
        0.15716859698295593,
        -0.9676461219787598,
        3.8326609134674072
      ],
      "min": [
        -0.15716859698295593,
        -1.1169252395629883,
        3.4679622650146484
      ],
      "type": "VEC3"
    },
    {
      "bufferView": 2,
      "byteOffset": 1506612,
      "componentType": 5126,
      "count": 81,
      "max": [
        0.9954849481582642,
        0.9481222033500671,
        0.9031288027763367
      ],
      "min": [
        -0.9375008344650269,
        -0.9889893531799316,
        -0.9004956483840942
      ],
      "type": "VEC3"
    },
    {
      "bufferView": 3,
      "byteOffset": 1003760,
      "componentType": 5126,
      "count": 81,
      "max": [
        0.99699866771698,
        0.9884989857673645,
        0.24155689775943756,
        1.0
      ],
      "min": [
        -0.07825043797492981,
        -0.9552600383758545,
        -0.4719730615615845,
        -1.0
      ],
      "type": "VEC4"
    },
    {
      "bufferView": 1,
      "byteOffset": 1267680,
      "componentType": 5126,
      "count": 81,
      "max": [
        0.9593464136123657,
        0.26447954773902893
      ],
      "min": [
        0.8153461813926697,
        0.09379791468381882
      ],
      "type": "VEC2"
    },
    {
      "bufferView": 1,
      "byteOffset": 1268328,
      "componentType": 5126,
      "count": 81,
      "max": [
        0.9593464136123657,
        0.26447954773902893
      ],
      "min": [
        0.8153461813926697,
        0.09379791468381882
      ],
      "type": "VEC2"
    },
    {
      "bufferView": 1,
      "byteOffset": 1268976,
      "componentType": 5126,
      "count": 81,
      "max": [
        0.9593464136123657,
        0.26447954773902893
      ],
      "min": [
        0.8153461813926697,
        0.09379791468381882
      ],
      "type": "VEC2"
    },
    {
      "bufferView": 0,
      "byteOffset": 1054920,
      "componentType": 5125,
      "count": 276,
      "type": "SCALAR"
    }
  ],
  "asset": {
    "extras": {
      "author": "Yennesis (https://sketchfab.com/sdarksoul99)",
      "license": "CC-BY-4.0 (http://creativecommons.org/licenses/by/4.0/)",
      "source": "https://sketchfab.com/3d-models/esquie-a9c9793baa8a465488d0cb61c9b60bed",
      "title": "Esquie"
    },
    "generator": "Sketchfab-16.74.0",
    "version": "2.0"
  },
  "bufferViews": [
    {
      "buffer": 0,
      "byteLength": 1056024,
      "name": "floatBufferViews",
      "target": 34963
    },
    {
      "buffer": 0,
      "byteLength": 1269624,
      "byteOffset": 1056024,
      "byteStride": 8,
      "name": "floatBufferViews",
      "target": 34962
    },
    {
      "buffer": 0,
      "byteLength": 1507584,
      "byteOffset": 2325648,
      "byteStride": 12,
      "name": "floatBufferViews",
      "target": 34962
    },
    {
      "buffer": 0,
      "byteLength": 1005056,
      "byteOffset": 3833232,
      "byteStride": 16,
      "name": "floatBufferViews",
      "target": 34962
    }
  ],
  "buffers": [
    {
      "byteLength": 4838288,
      "uri": "scene.bin"
    }
  ],
  "images": [
    {
      "uri": "textures/Shirt_baseColor.png"
    },
    {
      "uri": "textures/Shirt_metallicRoughness.png"
    },
    {
      "uri": "textures/Shirt_normal.png"
    },
    {
      "uri": "textures/Pant_baseColor.png"
    },
    {
      "uri": "textures/Pant_metallicRoughness.png"
    },
    {
      "uri": "textures/Pant_normal.png"
    },
    {
      "uri": "textures/gold_baseColor.png"
    },
    {
      "uri": "textures/gold_metallicRoughness.png"
    },
    {
      "uri": "textures/gold_normal.png"
    },
    {
      "uri": "textures/smallBraceletes_baseColor.png"
    },
    {
      "uri": "textures/smallBraceletes_metallicRoughness.png"
    },
    {
      "uri": "textures/smallBraceletes_normal.png"
    },
    {
      "uri": "textures/hands.001_baseColor.png"
    },
    {
      "uri": "textures/straps_baseColor.png"
    },
    {
      "uri": "textures/straps_metallicRoughness.png"
    },
    {
      "uri": "textures/straps_normal.png"
    },
    {
      "uri": "textures/Material.002_baseColor.png"
    },
    {
      "uri": "textures/Material.002_metallicRoughness.png"
    },
    {
      "uri": "textures/Material.002_normal.png"
    },
    {
      "uri": "textures/Material.001_metallicRoughness.png"
    }
  ],
  "materials": [
    {
      "doubleSided": true,
      "name": "Shirt",
      "normalTexture": {
        "index": 2
      },
      "pbrMetallicRoughness": {
        "baseColorTexture": {
          "index": 0
        },
        "metallicRoughnessTexture": {
          "index": 1
        }
      }
    },
    {
      "doubleSided": true,
      "name": "Pant",
      "normalTexture": {
        "index": 5
      },
      "pbrMetallicRoughness": {
        "baseColorTexture": {
          "index": 3
        },
        "metallicRoughnessTexture": {
          "index": 4
        }
      }
    },
    {
      "doubleSided": true,
      "name": "gold",
      "normalTexture": {
        "index": 8
      },
      "pbrMetallicRoughness": {
        "baseColorTexture": {
          "index": 6
        },
        "metallicRoughnessTexture": {
          "index": 7
        }
      }
    },
    {
      "doubleSided": true,
      "name": "smallBraceletes",
      "normalTexture": {
        "index": 11
      },
      "pbrMetallicRoughness": {
        "baseColorTexture": {
          "index": 9
        },
        "metallicRoughnessTexture": {
          "index": 10
        }
      }
    },
    {
      "doubleSided": true,
      "name": "hands.001",
      "normalTexture": {
        "index": 11
      },
      "pbrMetallicRoughness": {
        "baseColorTexture": {
          "index": 12
        },
        "metallicRoughnessTexture": {
          "index": 10
        }
      }
    },
    {
      "doubleSided": true,
      "name": "straps",
      "normalTexture": {
        "index": 15
      },
      "pbrMetallicRoughness": {
        "baseColorTexture": {
          "index": 13
        },
        "metallicRoughnessTexture": {
          "index": 14
        }
      }
    },
    {
      "doubleSided": true,
      "name": "Material.002",
      "normalTexture": {
        "index": 18
      },
      "pbrMetallicRoughness": {
        "baseColorTexture": {
          "index": 16
        },
        "metallicRoughnessTexture": {
          "index": 17
        }
      }
    },
    {
      "doubleSided": true,
      "name": "Material.001",
      "normalTexture": {
        "index": 18
      },
      "pbrMetallicRoughness": {
        "baseColorTexture": {
          "index": 16
        },
        "metallicRoughnessTexture": {
          "index": 19
        }
      }
    }
  ],
  "meshes": [
    {
      "name": "Cube_Shirt_0",
      "primitives": [
        {
          "attributes": {
            "NORMAL": 1,
            "POSITION": 0,
            "TANGENT": 2,
            "TEXCOORD_0": 3,
            "TEXCOORD_1": 4
          },
          "indices": 5,
          "material": 0,
          "mode": 4
        }
      ]
    },
    {
      "name": "Cube_Pant_0",
      "primitives": [
        {
          "attributes": {
            "NORMAL": 7,
            "POSITION": 6,
            "TANGENT": 8,
            "TEXCOORD_0": 9,
            "TEXCOORD_1": 10,
            "TEXCOORD_2": 11
          },
          "indices": 12,
          "material": 1,
          "mode": 4
        }
      ]
    },
    {
      "name": "Cube_gold_0",
      "primitives": [
        {
          "attributes": {
            "NORMAL": 14,
            "POSITION": 13,
            "TANGENT": 15,
            "TEXCOORD_0": 16,
            "TEXCOORD_1": 17
          },
          "indices": 18,
          "material": 2,
          "mode": 4
        }
      ]
    },
    {
      "name": "Cube_smallBraceletes_0",
      "primitives": [
        {
          "attributes": {
            "NORMAL": 20,
            "POSITION": 19,
            "TANGENT": 21,
            "TEXCOORD_0": 22,
            "TEXCOORD_1": 23,
            "TEXCOORD_2": 24
          },
          "indices": 25,
          "material": 3,
          "mode": 4
        }
      ]
    },
    {
      "name": "Cube_hands.001_0",
      "primitives": [
        {
          "attributes": {
            "NORMAL": 27,
            "POSITION": 26,
            "TANGENT": 28,
            "TEXCOORD_0": 29,
            "TEXCOORD_1": 30,
            "TEXCOORD_2": 31
          },
          "indices": 32,
          "material": 4,
          "mode": 4
        }
      ]
    },
    {
      "name": "Cube_straps_0",
      "primitives": [
        {
          "attributes": {
            "NORMAL": 34,
            "POSITION": 33,
            "TANGENT": 35,
            "TEXCOORD_0": 36,
            "TEXCOORD_1": 37
          },
          "indices": 38,
          "material": 5,
          "mode": 4
        }
      ]
    },
    {
      "name": "Cube_Material.002_0",
      "primitives": [
        {
          "attributes": {
            "NORMAL": 40,
            "POSITION": 39,
            "TANGENT": 41,
            "TEXCOORD_0": 42,
            "TEXCOORD_1": 43
          },
          "indices": 44,
          "material": 6,
          "mode": 4
        }
      ]
    },
    {
      "name": "Cube_Material.001_0",
      "primitives": [
        {
          "attributes": {
            "NORMAL": 46,
            "POSITION": 45,
            "TANGENT": 47,
            "TEXCOORD_0": 48,
            "TEXCOORD_1": 49,
            "TEXCOORD_2": 50
          },
          "indices": 51,
          "material": 7,
          "mode": 4
        }
      ]
    }
  ],
  "nodes": [
    {
      "children": [
        1
      ],
      "matrix": [
        1.0,
        0.0,
        0.0,
        0.0,
        0.0,
        2.220446049250313e-16,
        -1.0,
        0.0,
        0.0,
        1.0,
        2.220446049250313e-16,
        0.0,
        0.0,
        0.0,
        0.0,
        1.0
      ],
      "name": "Sketchfab_model"
    },
    {
      "children": [
        2
      ],
      "matrix": [
        0.009999999776482582,
        0.0,
        0.0,
        0.0,
        0.0,
        0.0,
        0.009999999776482582,
        0.0,
        0.0,
        -0.009999999776482582,
        0.0,
        0.0,
        0.0,
        0.0,
        0.0,
        1.0
      ],
      "name": "29eb23c911e742eaad1ab761b2bff9e6.fbx"
    },
    {
      "children": [
        3
      ],
      "name": "RootNode"
    },
    {
      "children": [
        4,
        5,
        6,
        7,
        8,
        9,
        10,
        11
      ],
      "matrix": [
        100.0,
        0.0,
        0.0,
        0.0,
        0.0,
        -1.629206793918314e-05,
        -99.99999999999868,
        0.0,
        0.0,
        99.99999999999868,
        -1.629206793918314e-05,
        0.0,
        0.0,
        0.0,
        0.0,
        1.0
      ],
      "name": "Cube"
    },
    {
      "mesh": 0,
      "name": "Cube_Shirt_0"
    },
    {
      "mesh": 1,
      "name": "Cube_Pant_0"
    },
    {
      "mesh": 2,
      "name": "Cube_gold_0"
    },
    {
      "mesh": 3,
      "name": "Cube_smallBraceletes_0"
    },
    {
      "mesh": 4,
      "name": "Cube_hands.001_0"
    },
    {
      "mesh": 5,
      "name": "Cube_straps_0"
    },
    {
      "mesh": 6,
      "name": "Cube_Material.002_0"
    },
    {
      "mesh": 7,
      "name": "Cube_Material.001_0"
    }
  ],
  "samplers": [
    {
      "magFilter": 9729,
      "minFilter": 9987,
      "wrapS": 10497,
      "wrapT": 10497
    }
  ],
  "scene": 0,
  "scenes": [
    {
      "name": "Sketchfab_Scene",
      "nodes": [
        0
      ]
    }
  ],
  "textures": [
    {
      "sampler": 0,
      "source": 0
    },
    {
      "sampler": 0,
      "source": 1
    },
    {
      "sampler": 0,
      "source": 2
    },
    {
      "sampler": 0,
      "source": 3
    },
    {
      "sampler": 0,
      "source": 4
    },
    {
      "sampler": 0,
      "source": 5
    },
    {
      "sampler": 0,
      "source": 6
    },
    {
      "sampler": 0,
      "source": 7
    },
    {
      "sampler": 0,
      "source": 8
    },
    {
      "sampler": 0,
      "source": 9
    },
    {
      "sampler": 0,
      "source": 10
    },
    {
      "sampler": 0,
      "source": 11
    },
    {
      "sampler": 0,
      "source": 12
    },
    {
      "sampler": 0,
      "source": 13
    },
    {
      "sampler": 0,
      "source": 14
    },
    {
      "sampler": 0,
      "source": 15
    },
    {
      "sampler": 0,
      "source": 16
    },
    {
      "sampler": 0,
      "source": 17
    },
    {
      "sampler": 0,
      "source": 18
    },
    {
      "sampler": 0,
      "source": 19
    }
  ]
}
